<svg width="249" height="239" viewBox="0 0 249 239" fill="none" xmlns="http://www.w3.org/2000/svg">
<path d="M66.9005 209.496V183.776C66.9005 182.659 66.9403 181.543 67.0201 180.426C67.1796 179.31 67.3391 178.113 67.4986 176.837L43.4532 209.496H66.9005ZM87.8356 209.496V216.674C87.8356 218.349 86.9982 219.186 85.3234 219.186H78.2652V237.968H66.9005V219.186H34.8399C33.8828 219.186 33.0853 218.947 32.4473 218.468C31.889 217.91 31.5301 217.272 31.3706 216.554L29.9351 210.214L65.9434 162.003H78.2652V209.496H87.8356Z" fill="black" fill-opacity="0.1"/>
<path d="M151.998 200.045C151.998 206.665 151.28 212.407 149.845 217.272C148.409 222.137 146.415 226.164 143.863 229.354C141.391 232.545 138.44 234.897 135.011 236.413C131.581 238.008 127.873 238.805 123.885 238.805C119.897 238.805 116.229 238.008 112.879 236.413C109.53 234.897 106.619 232.545 104.146 229.354C101.674 226.164 99.72 222.137 98.2844 217.272C96.9286 212.407 96.2507 206.665 96.2507 200.045C96.2507 193.346 96.9286 187.564 98.2844 182.699C99.72 177.834 101.674 173.807 104.146 170.616C106.619 167.426 109.53 165.074 112.879 163.558C116.229 161.963 119.897 161.166 123.885 161.166C127.873 161.166 131.581 161.963 135.011 163.558C138.44 165.074 141.391 167.426 143.863 170.616C146.415 173.807 148.409 177.834 149.845 182.699C151.28 187.564 151.998 193.346 151.998 200.045ZM138.599 200.045C138.599 194.463 138.201 189.837 137.403 186.168C136.606 182.5 135.489 179.589 134.054 177.435C132.698 175.202 131.143 173.647 129.388 172.77C127.633 171.893 125.799 171.454 123.885 171.454C122.051 171.454 120.256 171.893 118.502 172.77C116.747 173.647 115.192 175.202 113.836 177.435C112.48 179.589 111.404 182.5 110.606 186.168C109.809 189.837 109.41 194.463 109.41 200.045C109.41 205.548 109.809 210.134 110.606 213.803C111.404 217.471 112.48 220.382 113.836 222.536C115.192 224.689 116.747 226.204 118.502 227.081C120.256 227.959 122.051 228.397 123.885 228.397C125.799 228.397 127.633 227.959 129.388 227.081C131.143 226.204 132.698 224.689 134.054 222.536C135.489 220.382 136.606 217.471 137.403 213.803C138.201 210.134 138.599 205.548 138.599 200.045Z" fill="black" fill-opacity="0.1"/>
<path d="M194.824 209.496V183.776C194.824 182.659 194.864 181.543 194.944 180.426C195.103 179.31 195.263 178.113 195.422 176.837L171.377 209.496H194.824ZM215.759 209.496V216.674C215.759 218.349 214.922 219.186 213.247 219.186H206.189V237.968H194.824V219.186H162.764C161.807 219.186 161.009 218.947 160.371 218.468C159.813 217.91 159.454 217.272 159.294 216.554L157.859 210.214L193.867 162.003H206.189V209.496H215.759Z" fill="black" fill-opacity="0.1"/>
<path d="M149.596 157.454H96.1327C94.9116 157.458 93.7057 157.183 92.6069 156.65C91.508 156.118 90.5451 155.341 89.7914 154.381C89.0244 153.411 88.4886 152.28 88.2248 151.072C87.9611 149.865 87.9764 148.613 88.2694 147.412C93.1845 126.825 93.1844 105.369 88.2691 84.7822C87.9762 83.5814 87.961 82.3296 88.2248 81.1221C88.4886 79.9145 89.0243 78.7831 89.7912 77.8138C90.5449 76.853 91.5079 76.0768 92.6068 75.5442C93.7057 75.0116 94.9116 74.7367 96.1327 74.7404H149.596C151.522 74.7461 153.383 75.4353 154.848 76.6851C156.313 77.9349 157.287 79.6643 157.596 81.5651C161.12 104.452 161.12 127.743 157.596 150.629C157.287 152.53 156.313 154.259 154.848 155.509C153.383 156.759 151.522 157.448 149.596 157.454Z" fill="#2C2C2C"/>
<path d="M123.141 131.576C131.658 131.576 138.562 124.672 138.562 116.156C138.562 107.639 131.658 100.735 123.141 100.735C114.625 100.735 107.721 107.639 107.721 116.156C107.721 124.672 114.625 131.576 123.141 131.576Z" fill="white"/>
<path d="M128.839 111.407L127.889 113.306L126.623 114.177" stroke="#272727" stroke-width="2" stroke-linecap="round" stroke-linejoin="round"/>
<path d="M116.492 116.156H119.446" stroke="#272727" stroke-width="2" stroke-linecap="round" stroke-linejoin="round"/>
<path d="M126.835 116.156H129.789" stroke="#272727" stroke-width="2" stroke-linecap="round" stroke-linejoin="round"/>
<path d="M117.442 111.407L118.392 113.306L119.658 114.177" stroke="#272727" stroke-width="2" stroke-linecap="round" stroke-linejoin="round"/>
<path fill-rule="evenodd" clip-rule="evenodd" d="M123.563 120.905H122.719C121.145 120.905 119.869 119.629 119.869 118.055V115.206C119.869 114.156 120.719 113.306 121.769 113.306H124.513C125.562 113.306 126.412 114.156 126.412 115.206V118.055C126.412 119.629 125.137 120.905 123.563 120.905Z" stroke="#272727" stroke-width="2" stroke-linecap="round" stroke-linejoin="round"/>
<path d="M117.442 120.905L118.392 119.005L119.658 118.134" stroke="#272727" stroke-width="2" stroke-linecap="round" stroke-linejoin="round"/>
<path d="M128.839 120.905L127.889 119.005L126.623 118.134" stroke="#272727" stroke-width="2" stroke-linecap="round" stroke-linejoin="round"/>
<path fill-rule="evenodd" clip-rule="evenodd" d="M125.04 113.306H121.241V111.407C121.241 110.882 121.667 110.457 122.191 110.457H124.091C124.615 110.457 125.04 110.882 125.04 111.407V113.306Z" stroke="#272727" stroke-width="2" stroke-linecap="round" stroke-linejoin="round"/>
<path d="M137.18 85.9886H83.7168C82.5464 85.9922 81.3906 85.7287 80.3373 85.2182C79.2841 84.7078 78.3611 83.9638 77.6387 83.0429C76.9031 82.1134 76.3893 81.0282 76.1364 79.8701C75.8836 78.7121 75.8983 77.5115 76.1794 76.36C81.1068 55.7213 81.1067 34.2124 76.1791 13.5738C75.8982 12.4223 75.8836 11.2218 76.1365 10.0638C76.3894 8.90579 76.9031 7.82073 77.6385 6.89116C78.3609 5.97022 79.2839 5.22623 80.3372 4.71578C81.3905 4.20532 82.5463 3.94187 83.7168 3.94547H137.18C139.026 3.95078 140.81 4.61113 142.214 5.80891C143.619 7.00669 144.553 8.66413 144.849 10.486C148.368 33.3387 148.368 56.5953 144.849 79.448C144.553 81.2699 143.619 82.9274 142.214 84.1252C140.81 85.323 139.026 85.9833 137.18 85.9886Z" fill="#343434"/>
<path d="M83.7171 7.96816C83.155 7.96627 82.5999 8.09261 82.094 8.33757C81.5881 8.58252 81.1447 8.93964 80.7976 9.38175C80.4401 9.83473 80.1907 10.3633 80.0683 10.9271C79.9459 11.491 79.9537 12.0754 80.0911 12.6358C85.166 33.8912 85.1661 56.0427 80.0914 77.2981C79.9539 77.8584 79.946 78.4427 80.0684 79.0065C80.1907 79.5703 80.44 80.0987 80.7974 80.5516L80.7977 80.5519C81.1447 80.9941 81.5881 81.3513 82.094 81.5963C82.5999 81.8413 83.155 81.9677 83.7171 81.9658H137.18C138.067 81.9661 138.924 81.6518 139.601 81.0787C140.277 80.5057 140.728 79.7113 140.874 78.8368C144.33 56.3892 144.33 33.5448 140.874 11.0972C140.728 10.2227 140.277 9.42823 139.601 8.85521C138.924 8.2822 138.067 7.96785 137.18 7.96815L83.7171 7.96816Z" fill="#343434"/>
<path opacity="0.2" d="M125.513 27.3114H97.4581C96.3916 27.3102 95.3692 26.886 94.615 26.1319C93.8609 25.3777 93.4367 24.3553 93.4355 23.2888V21.7168C93.4367 20.6503 93.8609 19.6278 94.615 18.8737C95.3692 18.1196 96.3916 17.6954 97.4581 17.6942H125.513C126.58 17.6954 127.602 18.1196 128.356 18.8737C129.111 19.6278 129.535 20.6503 129.536 21.7168V23.2888C129.535 24.3553 129.111 25.3778 128.356 26.1319C127.602 26.886 126.58 27.3102 125.513 27.3114Z" fill="white"/>
<path opacity="0.2" d="M125.513 47.174H97.4581C96.3916 47.1728 95.3692 46.7487 94.615 45.9945C93.8609 45.2404 93.4367 44.2179 93.4355 43.1514V41.5795C93.4367 40.513 93.8609 39.4905 94.615 38.7363C95.3692 37.9822 96.3916 37.558 97.4581 37.5569H125.513C126.58 37.558 127.602 37.9822 128.356 38.7363C129.111 39.4905 129.535 40.513 129.536 41.5795V43.1514C129.535 44.2179 129.111 45.2404 128.356 45.9945C127.602 46.7487 126.58 47.1728 125.513 47.174Z" fill="white"/>
<path opacity="0.2" d="M125.513 67.037H97.4581C96.3916 67.0359 95.3692 66.6117 94.615 65.8576C93.8609 65.1034 93.4367 64.0809 93.4355 63.0144V61.4425C93.4367 60.376 93.8609 59.3535 94.615 58.5994C95.3692 57.8453 96.3916 57.4211 97.4581 57.4199H125.513C126.58 57.4211 127.602 57.8453 128.356 58.5994C129.111 59.3535 129.535 60.376 129.536 61.4425V63.0144C129.535 64.0809 129.111 65.1034 128.356 65.8576C127.602 66.6117 126.58 67.0359 125.513 67.037Z" fill="white"/>
<path opacity="0.5" d="M124.007 11.5027H95.8481C95.0482 11.5018 94.2813 11.1837 93.7157 10.6181C93.1501 10.0524 92.832 9.28557 92.8311 8.48568V3.12203C92.832 2.32214 93.1501 1.55526 93.7157 0.98965C94.2813 0.424038 95.0482 0.105882 95.8481 0.10498H124.007C124.807 0.105882 125.574 0.424038 126.14 0.98965C126.705 1.55526 127.023 2.32214 127.024 3.12203V8.48568C127.023 9.28557 126.705 10.0524 126.14 10.6181C125.574 11.1837 124.807 11.5018 124.007 11.5027Z" fill="white"/>
<path d="M237.748 147.311H184.285C183.114 147.315 181.958 147.051 180.905 146.541C179.852 146.03 178.929 145.286 178.207 144.365C177.471 143.436 176.957 142.351 176.704 141.193C176.451 140.035 176.466 138.834 176.747 137.682C181.675 117.044 181.675 95.535 176.747 74.8963C176.466 73.7448 176.451 72.5443 176.704 71.3863C176.957 70.2283 177.471 69.1432 178.206 68.2137C178.929 67.2927 179.852 66.5487 180.905 66.0383C181.958 65.5278 183.114 65.2644 184.285 65.268H237.748C239.594 65.2733 241.378 65.9336 242.782 67.1314C244.187 68.3292 245.12 69.9866 245.417 71.8085C248.936 94.6612 248.936 117.918 245.417 140.771C245.12 142.592 244.187 144.25 242.782 145.448C241.378 146.645 239.594 147.306 237.748 147.311Z" fill="#343434"/>
<path opacity="0.2" d="M184.285 69.2905C183.723 69.2887 183.168 69.415 182.662 69.6599C182.156 69.9049 181.713 70.262 181.365 70.7041C181.008 71.1571 180.759 71.6857 180.636 72.2495C180.514 72.8134 180.522 73.3978 180.659 73.9582C185.734 95.2136 185.734 117.365 180.659 138.621C180.522 139.181 180.514 139.765 180.636 140.329C180.759 140.893 181.008 141.421 181.365 141.874L181.366 141.874C181.713 142.316 182.156 142.674 182.662 142.919C183.168 143.164 183.723 143.29 184.285 143.288H237.748C238.635 143.288 239.492 142.974 240.169 142.401C240.845 141.828 241.296 141.034 241.441 140.159C244.898 117.712 244.898 94.8672 241.441 72.4196C241.296 71.5451 240.845 70.7506 240.169 70.1776C239.492 69.6046 238.635 69.2902 237.748 69.2905L184.285 69.2905Z" fill="#2C2C2C" fill-opacity="0.1"/>
<path opacity="0.2" d="M226.081 98.6905H198.026C196.959 98.6893 195.937 98.2652 195.183 97.511C194.429 96.7569 194.005 95.7344 194.003 94.6679V93.0959C194.005 92.0294 194.429 91.007 195.183 90.2528C195.937 89.4987 196.959 89.0745 198.026 89.0734H226.081C227.148 89.0745 228.17 89.4987 228.924 90.2528C229.678 91.007 230.103 92.0294 230.104 93.0959V94.668C230.103 95.7344 229.678 96.7569 228.924 97.511C228.17 98.2651 227.148 98.6893 226.081 98.6905Z" fill="white"/>
<path opacity="0.2" d="M226.081 118.553H198.026C196.959 118.552 195.937 118.128 195.183 117.374C194.429 116.62 194.005 115.597 194.003 114.531V112.959C194.005 111.892 194.429 110.87 195.183 110.116C195.937 109.362 196.959 108.937 198.026 108.936H226.081C227.148 108.937 228.17 109.362 228.924 110.116C229.678 110.87 230.103 111.892 230.104 112.959V114.531C230.103 115.597 229.678 116.62 228.924 117.374C228.17 118.128 227.148 118.552 226.081 118.553Z" fill="white"/>
<path opacity="0.5" d="M225.915 73.4958H197.756C196.956 73.4949 196.189 73.1767 195.623 72.6111C195.058 72.0455 194.74 71.2786 194.739 70.4787V65.1151C194.74 64.3152 195.058 63.5483 195.623 62.9827C196.189 62.4171 196.956 62.0989 197.756 62.098H225.915C226.715 62.0989 227.482 62.4171 228.047 62.9827C228.613 63.5483 228.931 64.3152 228.932 65.1151V70.4787C228.931 71.2786 228.613 72.0455 228.047 72.6111C227.482 73.1767 226.715 73.4949 225.915 73.4958Z" fill="white"/>
<path d="M54.4577 201.292L5.08641 180.779C4.0042 180.333 3.03794 179.646 2.26114 178.771C1.48434 177.895 0.917474 176.854 0.603678 175.727C0.281069 174.586 0.222973 173.387 0.433793 172.22C0.644613 171.054 1.11879 169.951 1.82025 168.995C14.2893 151.827 22.5417 131.964 25.91 111.014C26.0924 109.843 26.5395 108.729 27.2174 107.757C27.8952 106.784 28.7859 105.979 29.8217 105.403C30.8422 104.83 31.98 104.497 33.1486 104.43C34.3171 104.362 35.4855 104.563 36.565 105.015L85.9363 125.528C87.6389 126.241 89.0331 127.535 89.8705 129.18C90.7079 130.825 90.9343 132.714 90.5092 134.51C84.9903 156.964 76.0671 178.441 64.0496 198.194C63.0766 199.763 61.5784 200.935 59.8218 201.503C58.0652 202.07 56.1643 201.995 54.4577 201.292Z" fill="#343434"/>
<path d="M35.0225 108.73C34.5042 108.512 33.9431 108.416 33.3819 108.448C32.8207 108.48 32.2743 108.64 31.7841 108.915C31.2802 109.196 30.8471 109.589 30.5177 110.062C30.1883 110.536 29.9713 111.079 29.8832 111.649C26.4143 133.225 17.9152 153.681 5.07357 171.362C4.73159 171.827 4.50013 172.364 4.39679 172.931C4.29345 173.499 4.32095 174.082 4.47722 174.638L4.47741 174.638C4.62819 175.18 4.90053 175.68 5.2737 176.1C5.64686 176.52 6.11101 176.85 6.63081 177.064L56.0021 197.577C56.8206 197.917 57.7334 197.956 58.5778 197.687C59.4223 197.417 60.1436 196.856 60.6134 196.105C72.4177 176.701 81.1827 155.605 86.604 133.549C86.8052 132.686 86.6936 131.779 86.2888 130.991C85.8841 130.202 85.2125 129.583 84.3938 129.243L35.0225 108.73Z" fill="#343434"/>
<path opacity="0.2" d="M61.3107 154.393L35.4026 143.628C34.4182 143.218 33.6367 142.434 33.2297 141.448C32.8226 140.462 32.8232 139.355 33.2313 138.37L33.8345 136.918C34.2447 135.934 35.0287 135.152 36.0145 134.745C37.0003 134.338 38.1073 134.339 39.0926 134.747L65.0006 145.511C65.985 145.922 66.7665 146.706 67.1736 147.691C67.5806 148.677 67.58 149.784 67.1719 150.77L66.5687 152.221C66.1585 153.206 65.3745 153.987 64.3887 154.394C63.4029 154.801 62.296 154.801 61.3107 154.393Z" fill="white"/>
<path opacity="0.2" d="M53.6891 172.735L27.781 161.971C26.7966 161.561 26.0152 160.777 25.6081 159.791C25.201 158.805 25.2016 157.698 25.6097 156.713L26.2129 155.261C26.6232 154.277 27.4072 153.495 28.3929 153.088C29.3787 152.681 30.4857 152.682 31.471 153.09L57.3791 163.854C58.3635 164.264 59.1449 165.048 59.552 166.034C59.959 167.02 59.9585 168.127 59.5503 169.112L58.9472 170.564C58.5369 171.548 57.7529 172.33 56.7672 172.737C55.7814 173.144 54.6744 173.143 53.6891 172.735Z" fill="white"/>
<path opacity="0.5" d="M71.6929 128.614C71.3051 128.614 70.921 128.538 70.5617 128.392L44.4555 117.838C43.7143 117.537 43.1226 116.955 42.8102 116.218C42.4978 115.482 42.4902 114.652 42.7892 113.91L44.7997 108.937C45.0997 108.195 45.6821 107.603 46.4187 107.291C47.1553 106.978 47.9859 106.971 48.7277 107.271L74.8339 117.826C75.5751 118.127 76.1668 118.709 76.4792 119.445C76.7915 120.182 76.7991 121.012 76.5002 121.754L74.4896 126.726C74.2638 127.283 73.8771 127.76 73.379 128.097C72.8809 128.433 72.2939 128.613 71.6929 128.614Z" fill="white"/>
</svg>
