<svg width="21" height="20" viewBox="0 0 21 20" fill="none" xmlns="http://www.w3.org/2000/svg">
<path d="M8.81417 0.576764L6.97311 0.103799C6.57989 0.000573092 6.16988 -0.0252797 5.76651 0.0277191C5.36314 0.0807179 4.97433 0.211529 4.62231 0.412674C4.27029 0.613819 3.96195 0.881353 3.71493 1.19998C3.4679 1.51861 3.28704 1.88209 3.18268 2.26963L2.72314 3.9798C4.23856 2.12141 6.41758 0.904001 8.81417 0.576764Z" fill="#585858"/>
<path d="M0.738746 11.3471L0.287995 13.0236C0.0772916 13.806 0.190502 14.639 0.602726 15.3392C1.01495 16.0394 1.69242 16.5495 2.48614 16.7573L4.24231 17.219C2.36711 15.7656 1.11618 13.669 0.738746 11.3471Z" fill="#585858"/>
<path d="M17.879 2.95615L15.9092 2.4398C16.9045 3.19438 17.7379 4.13628 18.361 5.21083C18.984 6.28537 19.3843 7.47117 19.5386 8.6994L20.0801 6.68018C20.288 5.89873 20.1731 5.06791 19.7605 4.36983C19.3479 3.67175 18.6713 3.16338 17.879 2.95615Z" fill="#585858"/>
<path d="M11.5071 19.1155L13.395 19.6173C14.1887 19.8249 15.0337 19.7133 15.7439 19.3072C16.4542 18.901 16.9717 18.2335 17.1825 17.4514L17.7152 15.4788C16.2132 17.4499 13.9821 18.7569 11.5071 19.1155Z" fill="#585858"/>
<path d="M10.1838 1.30922C8.46843 1.30865 6.79139 1.80956 5.3648 2.74861C3.93821 3.68766 2.82617 5.02265 2.16931 6.58476C1.51245 8.14686 1.34029 9.8659 1.67459 11.5245C2.00889 13.183 2.83465 14.7066 4.04742 15.9025C5.26019 17.0984 6.80549 17.9129 8.48789 18.2431C10.1703 18.5732 11.9142 18.404 13.4991 17.757C15.084 17.1101 16.4386 16.0143 17.3917 14.6083C18.3448 13.2024 18.8535 11.5494 18.8535 9.85838C18.8535 7.5915 17.9402 5.41742 16.3144 3.81423C14.6886 2.21103 12.4834 1.30998 10.1838 1.30922ZM5.27239 5.5737C5.36512 5.09972 5.59833 4.66349 5.94254 4.32015C6.28675 3.97681 6.72649 3.74178 7.20619 3.64478C7.68588 3.54777 8.18398 3.59315 8.63752 3.77517C9.09105 3.95719 9.47966 4.26768 9.75421 4.66739C10.0288 5.0671 10.1769 5.53807 10.18 6.02078C10.183 6.50348 10.0408 6.97624 9.77131 7.37928C9.50182 7.78232 9.11716 8.09755 8.66596 8.28511C8.21475 8.47268 7.71726 8.52415 7.23638 8.43304C6.91692 8.3725 6.61269 8.25051 6.34107 8.07403C6.06945 7.89756 5.83577 7.67005 5.65338 7.40451C5.47099 7.13897 5.34347 6.84061 5.27809 6.52647C5.21272 6.21233 5.21078 5.88858 5.27239 5.5737ZM8.87548 12.9601C8.78209 13.4339 8.54831 13.8698 8.20367 14.2126C7.85903 14.5555 7.41902 14.7899 6.93924 14.8863C6.45947 14.9827 5.96148 14.9367 5.50821 14.7542C5.05494 14.5716 4.66675 14.2607 4.3927 13.8607C4.11865 13.4607 3.97105 12.9896 3.96854 12.507C3.96604 12.0243 4.10875 11.5518 4.37864 11.149C4.64853 10.7463 5.03348 10.4315 5.48483 10.2444C5.93618 10.0573 6.43367 10.0063 6.91441 10.0979C7.23391 10.1587 7.53811 10.281 7.80962 10.4578C8.08113 10.6346 8.31462 10.8625 8.49675 11.1283C8.67888 11.3941 8.80607 11.6927 8.87106 12.007C8.93604 12.3213 8.93755 12.6452 8.87548 12.9601ZM9.92626 10.9836C9.71284 10.9429 9.51643 10.8409 9.36179 10.6902C9.20716 10.5396 9.10123 10.3473 9.05738 10.1374C9.01353 9.9275 9.03371 9.70952 9.11538 9.51093C9.19704 9.31235 9.33654 9.14205 9.51628 9.02152C9.69601 8.90099 9.90793 8.83563 10.1253 8.83369C10.3427 8.83174 10.5558 8.8933 10.7377 9.01059C10.9196 9.12788 11.0622 9.29565 11.1475 9.49275C11.2328 9.68984 11.257 9.90742 11.2171 10.1181C11.1904 10.2586 11.1357 10.3926 11.0563 10.5123C10.9769 10.632 10.8743 10.7351 10.7543 10.8155C10.6343 10.896 10.4994 10.9522 10.3573 10.9811C10.2152 11.0099 10.0687 11.0108 9.92626 10.9836ZM15.0924 14.1373C14.9996 14.6113 14.7664 15.0475 14.4222 15.3908C14.078 15.7342 13.6383 15.9692 13.1586 16.0662C12.6789 16.1632 12.1808 16.1178 11.7272 15.9358C11.2737 15.7538 10.8851 15.4433 10.6105 15.0436C10.336 14.6439 10.1878 14.1729 10.1848 13.6902C10.1817 13.2075 10.324 12.7347 10.5934 12.3317C10.8629 11.9287 11.2476 11.6134 11.6988 11.4259C12.15 11.2383 12.6475 11.1868 13.1284 11.2779C13.4478 11.3385 13.7521 11.4605 14.0237 11.6369C14.2953 11.8134 14.529 12.0409 14.7114 12.3065C14.8938 12.572 15.0213 12.8704 15.0867 13.1845C15.152 13.4986 15.154 13.8224 15.0924 14.1373ZM13.4533 9.61312C12.9724 9.52171 12.5299 9.29182 12.1816 8.95251C11.8333 8.6132 11.5949 8.17972 11.4965 7.70685C11.3981 7.23398 11.4441 6.74297 11.6288 6.29589C11.8134 5.84881 12.1284 5.46574 12.5339 5.1951C12.9393 4.92446 13.4171 4.77841 13.9068 4.77541C14.3965 4.77241 14.876 4.91259 15.2849 5.17824C15.6938 5.44389 16.0136 5.82308 16.2038 6.26786C16.3941 6.71264 16.4463 7.20305 16.3539 7.67709C16.2928 7.99226 16.1693 8.29247 15.9904 8.56055C15.8115 8.82863 15.5808 9.0593 15.3114 9.23939C15.042 9.41947 14.7392 9.54543 14.4204 9.61006C14.1015 9.67468 13.7729 9.6767 13.4533 9.61601V9.61312Z" fill="#585858"/>
</svg>
