<svg width="31" height="36" viewBox="0 0 31 36" fill="none" xmlns="http://www.w3.org/2000/svg">
<path fill-rule="evenodd" clip-rule="evenodd" d="M16.8286 1.41407C16.7186 0.615364 16.0238 -0.000244141 15.1831 -0.000244141C14.2659 -0.000244141 13.5224 0.732381 13.5224 1.63612L13.5224 30.3996L3.02018 20.0091L2.83426 19.8503C2.18515 19.3737 1.26247 19.4246 0.671685 20.0044C0.0218238 20.6421 0.0196468 21.6782 0.666823 22.3185L13.9839 35.4954C14.0593 35.5729 14.1424 35.6431 14.2319 35.7049C14.8806 36.1532 15.7821 36.091 16.3607 35.5184L29.699 22.3184L29.8594 22.1345C30.3404 21.4929 30.2848 20.584 29.6939 20.0043C29.044 19.3666 27.9926 19.3688 27.3454 20.0092L16.8437 30.4022L16.8437 1.63612L16.8286 1.41407Z" fill="white"/>
</svg>
