<svg width="31" height="36" viewBox="0 0 31 36" fill="none" xmlns="http://www.w3.org/2000/svg">
<path fill-rule="evenodd" clip-rule="evenodd" d="M13.9376 34.5859C14.0475 35.3846 14.7423 36.0002 15.583 36.0002C16.5002 36.0002 17.2437 35.2676 17.2437 34.3639L17.2437 5.60035L27.7459 15.9908L27.9319 16.1496C28.581 16.6263 29.5036 16.5754 30.0944 15.9956C30.7443 15.3579 30.7465 14.3218 30.0993 13.6815L16.7822 0.504594C16.7068 0.42706 16.6237 0.356828 16.5342 0.295072C15.8855 -0.153239 14.984 -0.0910707 14.4054 0.481554L1.06712 13.6816L0.906729 13.8654C0.42576 14.5071 0.481344 15.416 1.07218 15.9957C1.72209 16.6334 2.77354 16.6311 3.42067 15.9907L13.9224 5.59776L13.9224 34.3639L13.9376 34.5859Z" fill="white"/>
</svg>
