<svg width="25" height="20" viewBox="0 0 25 20" fill="none" xmlns="http://www.w3.org/2000/svg">
<path fill-rule="evenodd" clip-rule="evenodd" d="M24.0396 11.0972C24.572 11.0239 24.9824 10.5607 24.9824 10.0002C24.9824 9.38879 24.494 8.89313 23.8915 8.89313H4.71603L11.643 1.89169L11.7488 1.76774C12.0666 1.33501 12.0326 0.719891 11.6462 0.32604C11.221 -0.107197 10.5303 -0.108648 10.1034 0.322798L1.31904 9.20063C1.26673 9.25148 1.2194 9.30756 1.17787 9.36805C0.880468 9.80039 0.922363 10.4001 1.30354 10.7853L10.1035 19.6774L10.226 19.7843C10.6538 20.105 11.2598 20.0679 11.6462 19.674C12.0713 19.2408 12.0698 18.5398 11.6429 18.1084L4.71431 11.1073H23.8915L24.0396 11.0972Z" fill="#C42323"/>
</svg>
