<svg width="21" height="20" viewBox="0 0 21 20" fill="none" xmlns="http://www.w3.org/2000/svg">
<path fill-rule="evenodd" clip-rule="evenodd" d="M4.65305 0.00172603L4.67968 0.00344441C5.20357 0.0468663 5.65858 0.307216 6.07395 0.713048C6.8633 1.48398 8.55828 3.73367 8.68625 4.3459C8.82788 5.02891 8.67645 5.47252 8.22502 6.25724L8.11561 6.45064C7.90846 6.82898 7.87679 6.98521 7.94092 7.16409C8.92656 9.57632 10.6085 11.258 12.9932 12.232C13.219 12.3138 13.3895 12.2669 13.8668 11.9931L14.1158 11.8522C14.7868 11.4842 15.2121 11.3679 15.8391 11.4985C16.4492 11.6264 18.7002 13.3224 19.47 14.1108C19.8752 14.5257 20.1362 14.9816 20.1816 15.5399C20.2295 16.8972 18.5734 18.8082 17.5631 19.3828C16.4143 20.2046 14.9563 20.191 13.3216 19.4301C9.04671 17.6513 2.50762 11.1539 0.765 6.88432L0.660684 6.64549C-0.00101115 5.06399 0.0133267 3.69766 0.771599 2.66758C1.46349 1.52176 3.32896 -0.0595114 4.65305 0.00172603ZM4.57224 1.46397L4.48408 1.46849C3.80448 1.55878 2.44164 2.73207 1.98779 3.47834L1.90938 3.59502C1.5184 4.23205 1.56371 5.10687 2.10806 6.3047L2.21209 6.54822C3.96761 10.4882 10.0459 16.4822 13.911 18.0911L14.1239 18.1858C15.2421 18.6598 16.0886 18.6388 16.774 18.1528L16.8246 18.1202C17.0367 17.9729 17.5258 17.5285 17.9024 17.0938C18.4315 16.4833 18.7312 15.9239 18.7215 15.6262C18.711 15.4988 18.6127 15.3271 18.4233 15.1332C17.8511 14.5472 15.77 12.9791 15.54 12.9309C15.3225 12.8856 15.144 12.9465 14.6558 13.2273L14.4102 13.3652C13.691 13.7531 13.184 13.8573 12.4677 13.5973C9.69172 12.4643 7.72094 10.4938 6.5759 7.68981C6.30468 6.9401 6.45068 6.40968 6.92233 5.58764L7.0347 5.38993C7.24897 5.00305 7.29431 4.83891 7.25394 4.6442C7.2056 4.41294 5.63852 2.33301 5.0517 1.75988C4.85738 1.57003 4.68664 1.47233 4.55885 1.46174L4.57224 1.46397Z" fill="#DB4949"/>
</svg>
