<svg width="21" height="20" viewBox="0 0 21 20" fill="none" xmlns="http://www.w3.org/2000/svg">
<path d="M14.3491 1.64273C15.4533 1.64598 16.5112 2.07978 17.292 2.84938C18.0727 3.61898 18.5128 4.66185 18.5161 5.75022V13.9643C18.5128 15.0527 18.0727 16.0956 17.292 16.8652C16.5112 17.6348 15.4533 18.0686 14.3491 18.0718H6.0161C4.91197 18.0686 3.854 17.6348 3.07325 16.8652C2.29251 16.0956 1.85243 15.0527 1.84914 13.9643V5.75022C1.85243 4.66185 2.29251 3.61898 3.07325 2.84938C3.854 2.07978 4.91197 1.64598 6.0161 1.64273H14.3491ZM14.3491 0H6.0161C2.80762 0 0.182617 2.58753 0.182617 5.75022V13.9643C0.182617 17.127 2.80762 19.7145 6.0161 19.7145H14.3491C17.5576 19.7145 20.1826 17.127 20.1826 13.9643V5.75022C20.1826 2.58753 17.5576 0 14.3491 0Z" fill="#585858"/>
<path d="M15.5991 5.74867C15.3519 5.74867 15.1102 5.67641 14.9047 5.54102C14.6991 5.40563 14.5389 5.2132 14.4443 4.98806C14.3497 4.76291 14.3249 4.51517 14.3731 4.27616C14.4214 4.03715 14.5404 3.81761 14.7152 3.64529C14.8901 3.47298 15.1128 3.35563 15.3553 3.30808C15.5977 3.26054 15.8491 3.28494 16.0775 3.3782C16.3059 3.47146 16.5011 3.62938 16.6385 3.832C16.7758 4.03463 16.8491 4.27285 16.8491 4.51654C16.8495 4.67844 16.8174 4.83882 16.7547 4.98847C16.692 5.13811 16.5999 5.27408 16.4838 5.38856C16.3676 5.50305 16.2297 5.59379 16.0779 5.65559C15.9261 5.71739 15.7634 5.74902 15.5991 5.74867ZM10.1826 6.5698C10.8419 6.5698 11.4864 6.76251 12.0346 7.12356C12.5828 7.48461 13.01 7.99779 13.2623 8.5982C13.5146 9.1986 13.5807 9.85927 13.452 10.4967C13.3234 11.1341 13.0059 11.7195 12.5397 12.1791C12.0735 12.6386 11.4796 12.9515 10.8329 13.0783C10.1863 13.2051 9.51606 13.14 8.90694 12.8913C8.29783 12.6426 7.77721 12.2215 7.41093 11.6811C7.04464 11.1408 6.84913 10.5055 6.84913 9.85563C6.85008 8.98446 7.20159 8.14924 7.82653 7.53323C8.45147 6.91721 9.29881 6.57073 10.1826 6.5698ZM10.1826 4.9271C9.19371 4.9271 8.22701 5.21616 7.40476 5.75771C6.58252 6.29926 5.94166 7.06899 5.56322 7.96956C5.18478 8.87013 5.08577 9.8611 5.27869 10.8171C5.47162 11.7732 5.94782 12.6514 6.64708 13.3406C7.34634 14.0299 8.23726 14.4993 9.20716 14.6895C10.1771 14.8796 11.1824 14.782 12.096 14.409C13.0097 14.036 13.7905 13.4043 14.34 12.5938C14.8894 11.7833 15.1826 10.8304 15.1826 9.85563C15.1826 8.5485 14.6558 7.29491 13.7181 6.37064C12.7805 5.44636 11.5087 4.9271 10.1826 4.9271Z" fill="#585858"/>
</svg>
