<svg width="21" height="20" viewBox="0 0 21 20" fill="none" xmlns="http://www.w3.org/2000/svg">
<path d="M18.583 0H1.89154C0.979491 0 0.182617 0.646883 0.182617 1.53536V18.0252C0.182617 18.9185 0.979491 19.7145 1.89154 19.7145H18.5781C19.4951 19.7145 20.1826 18.9132 20.1826 18.0252V1.53536C20.1879 0.646883 19.4951 0 18.583 0ZM6.38216 16.433H3.51699V7.65171H6.38216V16.433ZM5.04868 6.31657H5.02814C4.11118 6.31657 3.51743 5.64373 3.51743 4.80146C3.51743 3.94379 4.12681 3.28678 5.06431 3.28678C6.0018 3.28678 6.57546 3.93895 6.596 4.80146C6.59555 5.64373 6.0018 6.31657 5.04868 6.31657ZM16.8536 16.433H13.9884V11.6316C13.9884 10.4813 13.5714 9.69533 12.5348 9.69533C11.7429 9.69533 11.2741 10.2234 11.0656 10.7378C10.9875 10.9226 10.9665 11.1744 10.9665 11.4314V16.433H8.10136V7.65171H10.9665V8.87374C11.3835 8.28847 12.0348 7.4462 13.5505 7.4462C15.4313 7.4462 16.854 8.66824 16.854 11.3029L16.8536 16.433Z" fill="#585858"/>
</svg>
