<svg width="133" height="54" viewBox="0 0 133 54" fill="none" xmlns="http://www.w3.org/2000/svg">
<path d="M1.74512 30H8.37012V21.2812H16.3076V30H22.9326V7.45312H16.3076V16.0312H8.37012V7.45312H1.74512V30ZM26.0576 30H32.6826V7.45312H26.0576V30ZM57.6201 30H63.4014V16.9375H63.5107L68.542 30H72.0889L77.1201 16.9375H77.2295V30H83.0107V7.45312H75.3545L70.3701 20.875H70.2607L65.2764 7.45312H57.6201V30ZM85.0576 30H92.0264L93.1982 25.5156H99.9482L101.12 30H108.089L100.729 7.45312H92.417L85.0576 30ZM96.5107 12.8281H96.6357L98.7295 20.8438H94.417L96.5107 12.8281ZM110.12 30H116.745V18.2812H116.854L124.886 30H130.339V7.45312H123.714V18.9844H123.604L115.636 7.45312H110.12V30Z" fill="white"/>
<path d="M35.8076 30H42.4326V22.5938H44.6045L48.167 30H55.5732L51.292 21.6094C53.4795 20.5469 54.917 18.0156 54.917 15.2031V15.1719C54.917 10.1719 51.7607 7.45312 45.9639 7.45312H35.8076V30ZM42.4326 17.9219V12.3438H45.1982C46.9482 12.3438 48.167 13.4844 48.167 15.125V15.1562C48.167 16.8125 46.9795 17.9219 45.1982 17.9219H42.4326Z" fill="#C42323"/>
<path d="M3.0918 50H4.62305V46.6299H6.7627C8.69727 46.6299 10.0371 45.3105 10.0371 43.3828V43.3691C10.0371 41.4346 8.69727 40.1357 6.7627 40.1357H3.0918V50ZM6.37988 41.4277C7.71289 41.4277 8.47852 42.1455 8.47852 43.376V43.3896C8.47852 44.627 7.71289 45.3447 6.37988 45.3447H4.62305V41.4277H6.37988ZM20.617 50H22.1482V40.1357H20.617V50ZM37.4243 50.1641C39.605 50.1641 41.2388 48.8447 41.5464 46.8828L41.5532 46.8145H40.0357L40.0152 46.876C39.646 48.127 38.7368 48.8105 37.4243 48.8105C35.5991 48.8105 34.4165 47.3477 34.4165 45.0645V45.0576C34.4165 42.7744 35.5923 41.3252 37.4243 41.3252C38.7505 41.3252 39.6665 42.0293 39.9946 43.1846L40.0357 43.3213H41.5532L41.5396 43.2598C41.232 41.3115 39.5982 39.9717 37.4243 39.9717C34.6284 39.9717 32.8511 41.9268 32.8511 45.0576V45.0645C32.8511 48.1953 34.6284 50.1641 37.4243 50.1641ZM54.2044 50H55.7356V41.4551H58.7503V40.1357H51.1829V41.4551H54.2044V50ZM73.2403 50.1641C75.7217 50.1641 77.2256 48.6943 77.2256 46.5342V40.1357H75.7012V46.4111C75.7012 47.8467 74.8125 48.8105 73.2403 48.8105C71.668 48.8105 70.7725 47.8467 70.7725 46.4111V40.1357H69.2412V46.5342C69.2412 48.6943 70.7657 50.1641 73.2403 50.1641ZM88.284 50H89.8152V46.2129H91.9207L93.9305 50H95.6941L93.4861 45.9805C94.6687 45.5771 95.4002 44.5107 95.4002 43.1709V43.1572C95.4002 41.3047 94.1287 40.1357 92.1121 40.1357H88.284V50ZM89.8152 44.9551V41.4209H91.9207C93.0965 41.4209 93.8211 42.0771 93.8211 43.1709V43.1846C93.8211 44.3057 93.1443 44.9551 91.9617 44.9551H89.8152ZM106.124 50H112.385V48.6807H107.655V45.6182H112.132V44.333H107.655V41.4551H112.385V40.1357H106.124V50ZM126.561 50.1641C128.899 50.1641 130.321 49.0225 130.321 47.2246V47.2178C130.321 45.6934 129.446 44.8662 127.409 44.4355L126.328 44.21C125.098 43.9434 124.537 43.4922 124.537 42.7539V42.7471C124.537 41.8857 125.317 41.3047 126.54 41.2979C127.709 41.2979 128.502 41.8516 128.639 42.7676L128.646 42.8633H130.136L130.129 42.7471C130.027 41.0928 128.618 39.9717 126.561 39.9717C124.476 39.9717 122.993 41.127 122.986 42.8086V42.8154C122.986 44.2783 123.922 45.167 125.857 45.5771L126.93 45.8027C128.236 46.0898 128.776 46.5205 128.776 47.3135V47.3203C128.776 48.2432 127.942 48.8379 126.622 48.8379C125.303 48.8379 124.394 48.2705 124.257 47.3613L124.243 47.2725H122.753L122.76 47.375C122.883 49.1113 124.346 50.1641 126.561 50.1641Z" fill="white"/>
</svg>
