<svg width="21" height="17" viewBox="0 0 21 17" fill="none" xmlns="http://www.w3.org/2000/svg">
<path d="M20.1826 2.83927C19.4324 3.1606 18.6386 3.37229 17.8264 3.46766C18.68 2.97496 19.3219 2.19222 19.6318 1.26624C18.8247 1.73141 17.9433 2.0578 17.0251 2.23142C16.6385 1.83201 16.1735 1.51427 15.6584 1.29751C15.1433 1.08076 14.5889 0.969507 14.0289 0.970527C11.7614 0.970527 9.92637 2.75302 9.92637 4.95034C9.92476 5.25598 9.96029 5.56071 10.0322 5.85802C8.40624 5.78288 6.81409 5.37402 5.35761 4.65761C3.90113 3.94119 2.6124 2.93298 1.57387 1.69749C1.20952 2.30293 1.01684 2.99372 1.01595 3.69766C1.01595 5.07766 1.74637 6.29748 2.84928 7.01212C2.19584 6.99683 1.55578 6.82635 0.983451 6.51516V6.56444C0.983451 8.49479 2.40012 10.1007 4.27512 10.4662C3.92253 10.5589 3.55919 10.6058 3.19428 10.6059C2.93536 10.6063 2.67702 10.5815 2.42303 10.5319C2.94428 12.1132 4.46137 13.2632 6.25845 13.296C4.79819 14.4053 3.00537 15.0049 1.16178 15.0005C0.834541 15 0.507603 14.9808 0.182617 14.943C2.05811 16.1235 4.23822 16.7479 6.46345 16.7419C14.0201 16.7419 18.1485 10.6757 18.1485 5.41444C18.1485 5.24195 18.1439 5.06945 18.1355 4.90105C18.9368 4.33922 19.63 3.64103 20.1826 2.83927Z" fill="#585858"/>
</svg>
