<svg width="21" height="20" viewBox="0 0 21 20" fill="none" xmlns="http://www.w3.org/2000/svg">
<path d="M6.96306 16.2165C6.70248 16.1055 6.45609 16.0056 6.25837 15.8167C6.12351 15.6827 5.95418 15.5758 5.8974 15.3749C5.89161 15.3599 5.88043 15.3474 5.86597 15.3399C5.54556 15.147 5.46951 14.8062 5.3519 14.4954C5.29149 14.3105 5.24239 14.1223 5.20487 13.9317C5.19959 13.9003 5.19789 13.8684 5.1998 13.8367C5.1998 13.6968 5.21096 13.5559 5.1998 13.4169C5.1704 13.1331 5.25151 12.8642 5.30931 12.5934C5.3999 12.2033 5.53955 11.8259 5.72503 11.4699C5.80072 11.326 5.88538 11.1868 5.97852 11.0532C5.99215 11.0349 6.002 11.0142 6.0075 10.9922C6.01299 10.9703 6.01403 10.9474 6.01054 10.925C6.00705 10.9026 5.99911 10.8812 5.98718 10.8618C5.97525 10.8425 5.95955 10.8256 5.941 10.8123C5.61002 10.4845 5.37375 10.0757 5.25658 9.62789C5.23555 9.50572 5.2318 9.38127 5.24543 9.25808C5.23223 9.09565 5.24179 8.9322 5.27382 8.77233C5.36422 8.48666 5.47921 8.20913 5.61755 7.94276C5.85818 7.47425 6.25532 7.10184 6.74202 6.88831C6.75723 6.88231 6.77143 6.87432 6.78664 6.86932L6.96408 6.82134C6.9706 6.85604 6.975 6.89108 6.97726 6.92629C6.97726 7.1062 6.96712 7.2871 6.97726 7.46601C7.00971 7.91777 7.13442 8.33256 7.50857 8.6364C7.69415 8.78425 7.91455 8.88359 8.14939 8.92525C8.33393 8.96023 8.52861 8.94624 8.71112 8.98722C9.05282 9.06618 9.39655 9.0282 9.73926 9.0262C9.98361 9.01625 10.2267 8.98684 10.4663 8.93825C10.7867 8.88128 11.1071 8.82031 11.4214 8.73835C11.6905 8.67243 11.9539 8.58588 12.2092 8.47948C12.6148 8.30358 13.0204 8.11467 13.4047 7.90478C13.6675 7.77175 13.9051 7.59528 14.1074 7.38305C14.4369 7.02024 14.518 6.59146 14.1996 6.18368C14.0262 5.94942 13.8314 5.73129 13.6176 5.53201C13.2461 5.1838 12.7934 4.93085 12.2995 4.79539C12.0663 4.73642 11.8341 4.67146 11.6009 4.61049C11.5698 4.60219 11.5378 4.59782 11.5056 4.5975C11.1122 4.5975 10.7177 4.57851 10.3253 4.5975C9.99362 4.62631 9.66364 4.67201 9.33672 4.73443C9.06397 4.7794 8.7902 4.82838 8.52556 4.89334C8.30756 4.94732 8.09464 5.02528 7.88171 5.09324C7.40418 5.25396 6.94424 5.46157 6.50881 5.71292C6.10862 5.94017 5.72107 6.18839 5.34784 6.45653C4.88741 6.80171 4.46133 7.18925 4.07533 7.61393C3.65142 8.05399 3.31169 8.56596 3.07253 9.12515C2.924 9.43992 2.84584 9.78248 2.84338 10.1296C2.85352 10.3895 2.84946 10.6494 2.84338 10.9092C2.85284 11.1428 2.90398 11.3728 2.99446 11.5889C3.12936 11.9373 3.32267 12.261 3.56633 12.5464C3.70727 12.7253 3.89586 12.8652 4.04897 13.0351C4.26967 13.2604 4.39417 13.5606 4.39675 13.8737C4.38357 14.3624 4.56913 14.7882 4.7851 15.205C4.95129 15.5327 5.1724 15.8304 5.43909 16.0855C5.71083 16.3414 5.96128 16.6223 6.29994 16.7942C6.56699 16.9284 6.84077 17.0491 7.12023 17.156C7.21954 17.1809 7.3227 17.1874 7.42441 17.175C7.44571 17.175 7.48018 17.135 7.48626 17.109C7.55014 16.8431 7.60895 16.5773 7.66776 16.3094C7.72251 16.0616 7.76916 15.8097 7.82999 15.5658C7.88576 15.3539 7.90908 15.131 8.07334 14.9541C8.21529 14.8012 8.37753 14.8102 8.55091 14.8422C8.77094 14.8832 8.99097 14.9281 9.21099 14.9701C9.74129 15.0701 10.2777 15.0111 10.81 15.0111C11.1406 15.0003 11.4666 14.9309 11.7722 14.8062C12.1206 14.6853 12.4595 14.5393 12.7862 14.3694C13.1327 14.1689 13.4659 13.9469 13.7839 13.7048C14.1205 13.4589 14.443 13.196 14.7654 12.9332C14.9925 12.7493 15.2126 12.5564 15.4316 12.3635C15.7692 12.0636 16.1038 11.7688 16.4395 11.4699C16.625 11.304 16.8085 11.1371 16.9931 10.9702C17.207 10.7763 17.422 10.5844 17.6329 10.3865C18.0293 10.0157 18.4217 9.64188 18.8151 9.26907L20.0856 8.0647C20.112 8.03971 20.1475 8.01772 20.1596 7.98674C20.2367 7.78085 20.404 7.81883 20.5703 7.82982C20.5703 7.8708 20.5764 7.90578 20.5764 7.94076C20.5764 8.38053 20.5764 8.82031 20.5764 9.26008C20.5791 9.30313 20.5713 9.3462 20.5537 9.38568C20.536 9.42515 20.509 9.45988 20.475 9.48696C20.2925 9.64388 20.1181 9.8098 19.9386 9.96971C19.8054 10.0714 19.679 10.1816 19.5604 10.2995C19.3231 10.5734 19.1011 10.8612 18.8739 11.1431C18.732 11.321 18.5904 11.4993 18.4491 11.6778C18.3355 11.8218 18.224 11.9677 18.1125 12.1126C17.9685 12.2995 17.8235 12.4844 17.6826 12.6723C17.4798 12.9432 17.277 13.217 17.0742 13.4879C16.9545 13.6468 16.8288 13.8017 16.7051 13.9576C16.4516 14.2765 16.1981 14.5963 15.9436 14.9121C15.7256 15.182 15.5127 15.4579 15.2754 15.7117C14.8354 16.1795 14.3761 16.6293 13.9299 17.092C13.4562 17.5763 12.9216 17.9989 12.339 18.3494C11.967 18.5731 11.5828 18.7767 11.1882 18.9591C10.8995 19.0921 10.6033 19.2085 10.301 19.3079C10.0891 19.3798 9.86702 19.4248 9.65003 19.4798C9.47056 19.5238 9.29211 19.5687 9.11163 19.6057C8.98601 19.6326 8.85861 19.6507 8.73038 19.6597C8.40389 19.6807 8.07638 19.6987 7.74888 19.7077C7.49138 19.719 7.23344 19.7163 6.97624 19.6997C6.69277 19.6763 6.41125 19.6339 6.13365 19.5727C5.71692 19.4728 5.30424 19.3608 4.89359 19.2409C4.71993 19.1864 4.5505 19.1196 4.38661 19.041C4.13088 18.9291 3.88113 18.8043 3.63832 18.6672C3.33816 18.4986 3.05232 18.3064 2.78356 18.0925C2.41121 17.7793 2.05712 17.4456 1.72296 17.093C1.52879 16.8711 1.35601 16.6319 1.20686 16.3784C0.892084 15.8761 0.652999 15.3313 0.497097 14.7612C0.405842 14.4424 0.362242 14.1096 0.285182 13.7857C0.116866 13.0801 0.208121 12.3635 0.201024 11.6528C0.201024 11.368 0.276056 11.0821 0.324726 10.7973C0.373396 10.5124 0.426121 10.2296 0.487972 9.94672C0.519405 9.7978 0.57213 9.65188 0.615729 9.50495C0.680622 9.28007 0.735376 9.05219 0.81852 8.8323C0.935124 8.50447 1.05781 8.17764 1.19571 7.85781C1.36707 7.46301 1.54552 7.07022 1.74122 6.68741C1.89475 6.38843 2.06397 6.09752 2.24819 5.81587C2.49458 5.43906 2.75517 5.07525 3.01575 4.70644C3.56734 3.91585 4.27305 3.26219 4.9666 2.60053C5.2468 2.34993 5.54352 2.11787 5.85482 1.90589C6.13162 1.706 6.4135 1.5011 6.70856 1.32519C7.01939 1.13947 7.34141 0.972578 7.67283 0.825452C8.121 0.625556 8.57829 0.441654 9.04268 0.281737C9.34071 0.186282 9.64581 0.113767 9.95523 0.0648484C10.5494 -0.0420962 11.1517 0.0108767 11.7479 0.0308664C12.0734 0.0418607 12.4029 0.1588 12.7162 0.267743C13.0839 0.392193 13.4421 0.542502 13.788 0.71751C14.0559 0.868812 14.3118 1.03988 14.5535 1.22924C14.6955 1.33424 14.829 1.44986 14.953 1.57506C15.2269 1.84917 15.4653 2.15568 15.6628 2.48759C15.8463 2.79399 15.9923 3.12077 16.0978 3.46109C16.1738 3.71096 16.26 3.96083 16.3178 4.2117C16.354 4.39072 16.372 4.57286 16.3715 4.75541C16.3786 5.1792 16.3654 5.60297 16.3766 6.02576C16.3712 6.31944 16.3266 6.61114 16.2438 6.89331C16.1748 7.17416 16.1059 7.45601 16.0105 7.72887C15.8301 8.251 15.5518 8.73513 15.1903 9.15613C14.9185 9.45616 14.6254 9.73673 14.3132 9.9957C13.9076 10.3515 13.4158 10.5904 12.9281 10.8203C12.5378 11.0032 12.1433 11.1751 11.752 11.356C11.3149 11.5559 10.8729 11.7558 10.444 11.9737C10.0313 12.1846 9.6328 12.4204 9.22722 12.6443C8.75167 12.9072 8.3755 13.286 8.01048 13.6718C7.73429 13.9551 7.51695 14.2888 7.37067 14.6543C7.28753 14.8642 7.19729 15.0721 7.12733 15.286C7.08465 15.43 7.05312 15.577 7.03303 15.7257C7.00565 15.8796 6.98841 16.0366 6.96306 16.2165Z" fill="#585858"/>
</svg>
