<svg width="21" height="21" viewBox="0 0 21 21" fill="none" xmlns="http://www.w3.org/2000/svg">
<g opacity="0.7">
<path d="M8.79681 3.1333C7.09633 3.45211 5.55871 4.34994 4.44531 5.67418" stroke="white" stroke-width="1.3" stroke-linecap="round" stroke-linejoin="round"/>
<path d="M3.09401 8.06836C2.53239 9.68152 2.54677 11.4394 3.13468 13.0432" stroke="white" stroke-width="1.3" stroke-linecap="round" stroke-linejoin="round"/>
<path d="M4.52539 15.4141C5.63158 16.6902 7.13693 17.5545 8.79666 17.8666" stroke="white" stroke-width="1.3" stroke-linecap="round" stroke-linejoin="round"/>
<path d="M11.5459 3.12988C15.1014 3.78485 17.6824 6.88476 17.6824 10.5C17.6824 14.1153 15.1014 17.2152 11.5459 17.8702" stroke="white" stroke-width="1.3" stroke-linecap="round" stroke-linejoin="round"/>
<path fill-rule="evenodd" clip-rule="evenodd" d="M9.30076 8.04845L12.5358 9.96178C12.726 10.0742 12.8426 10.2788 12.8426 10.4997C12.8426 10.7206 12.726 10.9252 12.5358 11.0376L9.30076 12.951C9.10747 13.0652 8.86774 13.0671 8.67272 12.9558C8.4777 12.8445 8.35735 12.6372 8.35742 12.4126V8.58678C8.35735 8.36224 8.4777 8.15491 8.67272 8.04362C8.86774 7.93233 9.10747 7.93417 9.30076 8.04845V8.04845Z" stroke="white" stroke-width="1.3" stroke-linecap="round" stroke-linejoin="round"/>
</g>
</svg>
