<svg width="21" height="16" viewBox="0 0 21 16" fill="none" xmlns="http://www.w3.org/2000/svg">
<path d="M20.0541 4.23574C20.0541 2.50282 18.761 1.10877 17.1631 1.10877C14.9988 1.00903 12.7915 0.97052 10.5357 0.97052H9.83251C7.58223 0.97052 5.37101 1.00903 3.20667 1.10915C1.61272 1.10915 0.319591 2.5109 0.319591 4.24383C0.221922 5.61439 0.180511 6.98533 0.182855 8.35627C0.178948 9.72721 0.223224 11.0994 0.315684 12.4729C0.315684 14.2059 1.60882 15.6115 3.20277 15.6115C5.47649 15.7154 7.80882 15.7617 10.1802 15.7578C12.5555 15.7655 14.8813 15.7167 17.1577 15.6115C18.7555 15.6115 20.0486 14.2059 20.0486 12.4729C20.1424 11.0981 20.1854 9.72721 20.1815 8.35242C20.1903 6.98148 20.1479 5.60925 20.0541 4.23574ZM8.26981 12.1341V4.56693L13.9346 8.34857L8.26981 12.1341Z" fill="#585858"/>
</svg>
